{"asset":{"version":"2.0","generator":"Blockbench 4.10.3 glTF exporter"},"scenes":[{"nodes":[16],"name":"blockbench_export"}],"scene":0,"nodes":[{"translation":[0.109375,0.009722222222222313,-0.007638888888888807],"name":"cube","mesh":0},{"translation":[-1.927470528863119e-18,-0.02152777777777777,-0.0013888888888889395],"name":"cube","mesh":1},{"rotation":[0,0,0.7071067811865475,0.7071067811865476],"translation":[0.11874999999999997,-0.0012152777777777873,0.10329861111111108],"name":"cylinder","mesh":2},{"rotation":[0,0,0.7071067811865475,0.7071067811865476],"translation":[0.10624999999999996,-0.0012152777777777873,0.10329861111111108],"name":"cylinder","mesh":3},{"rotation":[0,0,-0.7071067811865475,0.7071067811865476],"translation":[-0.11874999999999997,-0.0012152777777777873,0.10329861111111108],"name":"cylinder","mesh":4},{"rotation":[0,0,-0.7071067811865475,0.7071067811865476],"translation":[-0.10624999999999996,-0.0012152777777777873,0.10329861111111108],"name":"cylinder","mesh":5},{"rotation":[0,0,0.7071067811865475,0.7071067811865476],"translation":[0.10624999999999996,-0.0012152777777777873,-0.10295138888888886],"name":"cylinder","mesh":6},{"rotation":[0,0,-0.7071067811865475,0.7071067811865476],"translation":[-0.11874999999999997,-0.0012152777777777873,-0.10295138888888886],"name":"cylinder","mesh":7},{"rotation":[0,0,-0.7071067811865475,0.7071067811865476],"translation":[-0.10624999999999996,-0.0012152777777777873,-0.10295138888888886],"name":"cylinder","mesh":8},{"rotation":[0,0,0.7071067811865475,0.7071067811865476],"translation":[0.11874999999999997,-0.0012152777777777873,-0.10295138888888886],"name":"cylinder","mesh":9},{"translation":[0.10624999999999994,-0.18125000000000002,-0.037499999999999915],"name":"cylinder","mesh":10},{"translation":[0.10624999999999994,-0.18125000000000002,0.03749999999999982],"name":"cylinder","mesh":11},{"translation":[-0.10624999999999994,-0.18125000000000002,0.03749999999999982],"name":"cylinder","mesh":12},{"translation":[-0.10624999999999994,-0.18125000000000002,-0.037499999999999915],"name":"cylinder","mesh":13},{"translation":[-0.109375,0.009722222222222313,-0.007638888888888807],"name":"cube","mesh":14},{"translation":[-1.5419764230904951e-18,0.03871527777777778,0.0013888888888889403],"name":"Gear","children":[0,1,2,3,4,5,6,7,8,9,10,11,12,13,14]},{"children":[15]}],"bufferViews":[{"buffer":0,"byteOffset":0,"byteLength":288,"target":34962,"byteStride":12},{"buffer":0,"byteOffset":288,"byteLength":288,"target":34962,"byteStride":12},{"buffer":0,"byteOffset":576,"byteLength":192,"target":34962,"byteStride":8},{"buffer":0,"byteOffset":768,"byteLength":72,"target":34963},{"buffer":0,"byteOffset":840,"byteLength":288,"target":34962,"byteStride":12},{"buffer":0,"byteOffset":1128,"byteLength":288,"target":34962,"byteStride":12},{"buffer":0,"byteOffset":1416,"byteLength":192,"target":34962,"byteStride":8},{"buffer":0,"byteOffset":1608,"byteLength":72,"target":34963},{"buffer":0,"byteOffset":1680,"byteLength":1920,"target":34962,"byteStride":12},{"buffer":0,"byteOffset":3600,"byteLength":1920,"target":34962,"byteStride":12},{"buffer":0,"byteOffset":5520,"byteLength":1280,"target":34962,"byteStride":8},{"buffer":0,"byteOffset":6800,"byteLength":384,"target":34963},{"buffer":0,"byteOffset":7184,"byteLength":1920,"target":34962,"byteStride":12},{"buffer":0,"byteOffset":9104,"byteLength":1920,"target":34962,"byteStride":12},{"buffer":0,"byteOffset":11024,"byteLength":1280,"target":34962,"byteStride":8},{"buffer":0,"byteOffset":12304,"byteLength":384,"target":34963},{"buffer":0,"byteOffset":12688,"byteLength":1920,"target":34962,"byteStride":12},{"buffer":0,"byteOffset":14608,"byteLength":1920,"target":34962,"byteStride":12},{"buffer":0,"byteOffset":16528,"byteLength":1280,"target":34962,"byteStride":8},{"buffer":0,"byteOffset":17808,"byteLength":384,"target":34963},{"buffer":0,"byteOffset":18192,"byteLength":1920,"target":34962,"byteStride":12},{"buffer":0,"byteOffset":20112,"byteLength":1920,"target":34962,"byteStride":12},{"buffer":0,"byteOffset":22032,"byteLength":1280,"target":34962,"byteStride":8},{"buffer":0,"byteOffset":23312,"byteLength":384,"target":34963},{"buffer":0,"byteOffset":23696,"byteLength":1920,"target":34962,"byteStride":12},{"buffer":0,"byteOffset":25616,"byteLength":1920,"target":34962,"byteStride":12},{"buffer":0,"byteOffset":27536,"byteLength":1280,"target":34962,"byteStride":8},{"buffer":0,"byteOffset":28816,"byteLength":384,"target":34963},{"buffer":0,"byteOffset":29200,"byteLength":1920,"target":34962,"byteStride":12},{"buffer":0,"byteOffset":31120,"byteLength":1920,"target":34962,"byteStride":12},{"buffer":0,"byteOffset":33040,"byteLength":1280,"target":34962,"byteStride":8},{"buffer":0,"byteOffset":34320,"byteLength":384,"target":34963},{"buffer":0,"byteOffset":34704,"byteLength":1920,"target":34962,"byteStride":12},{"buffer":0,"byteOffset":36624,"byteLength":1920,"target":34962,"byteStride":12},{"buffer":0,"byteOffset":38544,"byteLength":1280,"target":34962,"byteStride":8},{"buffer":0,"byteOffset":39824,"byteLength":384,"target":34963},{"buffer":0,"byteOffset":40208,"byteLength":1920,"target":34962,"byteStride":12},{"buffer":0,"byteOffset":42128,"byteLength":1920,"target":34962,"byteStride":12},{"buffer":0,"byteOffset":44048,"byteLength":1280,"target":34962,"byteStride":8},{"buffer":0,"byteOffset":45328,"byteLength":384,"target":34963},{"buffer":0,"byteOffset":45712,"byteLength":1440,"target":34962,"byteStride":12},{"buffer":0,"byteOffset":47152,"byteLength":1440,"target":34962,"byteStride":12},{"buffer":0,"byteOffset":48592,"byteLength":960,"target":34962,"byteStride":8},{"buffer":0,"byteOffset":49552,"byteLength":288,"target":34963},{"buffer":0,"byteOffset":49840,"byteLength":1440,"target":34962,"byteStride":12},{"buffer":0,"byteOffset":51280,"byteLength":1440,"target":34962,"byteStride":12},{"buffer":0,"byteOffset":52720,"byteLength":960,"target":34962,"byteStride":8},{"buffer":0,"byteOffset":53680,"byteLength":288,"target":34963},{"buffer":0,"byteOffset":53968,"byteLength":1440,"target":34962,"byteStride":12},{"buffer":0,"byteOffset":55408,"byteLength":1440,"target":34962,"byteStride":12},{"buffer":0,"byteOffset":56848,"byteLength":960,"target":34962,"byteStride":8},{"buffer":0,"byteOffset":57808,"byteLength":288,"target":34963},{"buffer":0,"byteOffset":58096,"byteLength":1440,"target":34962,"byteStride":12},{"buffer":0,"byteOffset":59536,"byteLength":1440,"target":34962,"byteStride":12},{"buffer":0,"byteOffset":60976,"byteLength":960,"target":34962,"byteStride":8},{"buffer":0,"byteOffset":61936,"byteLength":288,"target":34963},{"buffer":0,"byteOffset":62224,"byteLength":288,"target":34962,"byteStride":12},{"buffer":0,"byteOffset":62512,"byteLength":288,"target":34962,"byteStride":12},{"buffer":0,"byteOffset":62800,"byteLength":192,"target":34962,"byteStride":8},{"buffer":0,"byteOffset":62992,"byteLength":72,"target":34963}],"buffers":[{"byteLength":63064,"uri":"data:application/octet-stream;base64,"}],"accessors":[{"bufferView":0,"componentType":5126,"count":24,"max":[0.0031250000465661287,0.0062500000931322575,0.03750000149011612],"min":[-0.0031250000465661287,-0.012500000186264515,-0.01875000074505806],"type":"VEC3"},{"bufferView":1,"componentType":5126,"count":24,"max":[1,1,1],"min":[-1,-1,-1],"type":"VEC3"},{"bufferView":2,"componentType":5126,"count":24,"max":[0.49609375,0.6953125],"min":[0.0625,0.0625],"type":"VEC2"},{"bufferView":3,"componentType":5123,"count":36,"max":[23],"min":[0],"type":"SCALAR"},{"bufferView":4,"componentType":5126,"count":24,"max":[0.09375,0.06875000149011612,0.125],"min":[-0.09375,-0.0062500000931322575,-0.125],"type":"VEC3"},{"bufferView":5,"componentType":5126,"count":24,"max":[1,1,1],"min":[-1,-1,-1],"type":"VEC3"},{"bufferView":6,"componentType":5126,"count":24,"max":[0.34375,0.2890625],"min":[0,0],"type":"VEC2"},{"bufferView":7,"componentType":5123,"count":36,"max":[23],"min":[0],"type":"SCALAR"},{"bufferView":8,"componentType":5126,"count":160,"max":[0.02187499962747097,0.012500000186264515,0.02187499962747097],"min":[-0.02187499962747097,0.0062500000931322575,-0.02187499962747097],"type":"VEC3"},{"bufferView":9,"componentType":5126,"count":160,"max":[1,1,1],"min":[-1,-1,-1],"type":"VEC3"},{"bufferView":10,"componentType":5126,"count":160,"max":[0.6705874800682068,0.628125011920929],"min":[0.25,0.0625],"type":"VEC2"},{"bufferView":11,"componentType":5123,"count":192,"max":[159],"min":[0],"type":"SCALAR"},{"bufferView":12,"componentType":5126,"count":160,"max":[0.04062499850988388,0.012500000186264515,0.04062499850988388],"min":[-0.04062499850988388,0,-0.04062499850988388],"type":"VEC3"},{"bufferView":13,"componentType":5126,"count":160,"max":[1,1,1],"min":[-1,-1,-1],"type":"VEC3"},{"bufferView":14,"componentType":5126,"count":160,"max":[0.619543731212616,0.4437500238418579],"min":[0.0637812465429306,0.125],"type":"VEC2"},{"bufferView":15,"componentType":5123,"count":192,"max":[159],"min":[0],"type":"SCALAR"},{"bufferView":16,"componentType":5126,"count":160,"max":[0.02187499962747097,0.012500000186264515,0.02187499962747097],"min":[-0.02187499962747097,0.0062500000931322575,-0.02187499962747097],"type":"VEC3"},{"bufferView":17,"componentType":5126,"count":160,"max":[1,1,1],"min":[-1,-1,-1],"type":"VEC3"},{"bufferView":18,"componentType":5126,"count":160,"max":[0.6705874800682068,0.628125011920929],"min":[0.375,0],"type":"VEC2"},{"bufferView":19,"componentType":5123,"count":192,"max":[159],"min":[0],"type":"SCALAR"},{"bufferView":20,"componentType":5126,"count":160,"max":[0.04062499850988388,0.012500000186264515,0.04062499850988388],"min":[-0.04062499850988388,0,-0.04062499850988388],"type":"VEC3"},{"bufferView":21,"componentType":5126,"count":160,"max":[1,1,1],"min":[-1,-1,-1],"type":"VEC3"},{"bufferView":22,"componentType":5126,"count":160,"max":[0.619543731212616,0.5062500238418579],"min":[0.0014156249817460775,0.09609377384185791],"type":"VEC2"},{"bufferView":23,"componentType":5123,"count":192,"max":[159],"min":[0],"type":"SCALAR"},{"bufferView":24,"componentType":5126,"count":160,"max":[0.04062499850988388,0.012500000186264515,0.04062499850988388],"min":[-0.04062499850988388,0,-0.04062499850988388],"type":"VEC3"},{"bufferView":25,"componentType":5126,"count":160,"max":[1,1,1],"min":[-1,-1,-1],"type":"VEC3"},{"bufferView":26,"componentType":5126,"count":160,"max":[0.5337406396865845,0.6312500238418579],"min":[0.0011718750465661287,0],"type":"VEC2"},{"bufferView":27,"componentType":5123,"count":192,"max":[159],"min":[0],"type":"SCALAR"},{"bufferView":28,"componentType":5126,"count":160,"max":[0.02187499962747097,0.012500000186264515,0.02187499962747097],"min":[-0.02187499962747097,0.0062500000931322575,-0.02187499962747097],"type":"VEC3"},{"bufferView":29,"componentType":5126,"count":160,"max":[1,1,1],"min":[-1,-1,-1],"type":"VEC3"},{"bufferView":30,"componentType":5126,"count":160,"max":[0.6705874800682068,0.628125011920929],"min":[0.28125,0.1875],"type":"VEC2"},{"bufferView":31,"componentType":5123,"count":192,"max":[159],"min":[0],"type":"SCALAR"},{"bufferView":32,"componentType":5126,"count":160,"max":[0.04062499850988388,0.012500000186264515,0.04062499850988388],"min":[-0.04062499850988388,0,-0.04062499850988388],"type":"VEC3"},{"bufferView":33,"componentType":5126,"count":160,"max":[1,1,1],"min":[-1,-1,-1],"type":"VEC3"},{"bufferView":34,"componentType":5126,"count":160,"max":[0.3854374885559082,0.6312500238418579],"min":[0.06404999643564224,0.34375],"type":"VEC2"},{"bufferView":35,"componentType":5123,"count":192,"max":[159],"min":[0],"type":"SCALAR"},{"bufferView":36,"componentType":5126,"count":160,"max":[0.02187499962747097,0.012500000186264515,0.02187499962747097],"min":[-0.02187499962747097,0.0062500000931322575,-0.02187499962747097],"type":"VEC3"},{"bufferView":37,"componentType":5126,"count":160,"max":[1,1,1],"min":[-1,-1,-1],"type":"VEC3"},{"bufferView":38,"componentType":5126,"count":160,"max":[0.6747156381607056,0.690625011920929],"min":[0.0007812500116415322,0],"type":"VEC2"},{"bufferView":39,"componentType":5123,"count":192,"max":[159],"min":[0],"type":"SCALAR"},{"bufferView":40,"componentType":5126,"count":120,"max":[0.012500000186264515,0.20624999701976776,0.012500000186264515],"min":[-0.012500000186264515,0.16875000298023224,-0.012500000186264515],"type":"VEC3"},{"bufferView":41,"componentType":5126,"count":120,"max":[1,1,1],"min":[-1,-1,-1],"type":"VEC3"},{"bufferView":42,"componentType":5126,"count":120,"max":[0.5765625238418579,0.574999988079071],"min":[0.3758343756198883,0.37812501192092896],"type":"VEC2"},{"bufferView":43,"componentType":5123,"count":144,"max":[119],"min":[0],"type":"SCALAR"},{"bufferView":44,"componentType":5126,"count":120,"max":[0.012500000186264515,0.20624999701976776,0.012500000186264515],"min":[-0.012500000186264515,0.16875000298023224,-0.012500000186264515],"type":"VEC3"},{"bufferView":45,"componentType":5126,"count":120,"max":[1,1,1],"min":[-1,-1,-1],"type":"VEC3"},{"bufferView":46,"componentType":5126,"count":120,"max":[0.5765625238418579,0.581250011920929],"min":[0.0008343749796040356,0.0625],"type":"VEC2"},{"bufferView":47,"componentType":5123,"count":144,"max":[119],"min":[0],"type":"SCALAR"},{"bufferView":48,"componentType":5126,"count":120,"max":[0.012500000186264515,0.20624999701976776,0.012500000186264515],"min":[-0.012500000186264515,0.16875000298023224,-0.012500000186264515],"type":"VEC3"},{"bufferView":49,"componentType":5126,"count":120,"max":[1,1,1],"min":[-1,-1,-1],"type":"VEC3"},{"bufferView":50,"componentType":5126,"count":120,"max":[0.5765625238418579,0.581250011920929],"min":[0.0633343756198883,0.503125011920929],"type":"VEC2"},{"bufferView":51,"componentType":5123,"count":144,"max":[119],"min":[0],"type":"SCALAR"},{"bufferView":52,"componentType":5126,"count":120,"max":[0.012500000186264515,0.20624999701976776,0.012500000186264515],"min":[-0.012500000186264515,0.16875000298023224,-0.012500000186264515],"type":"VEC3"},{"bufferView":53,"componentType":5126,"count":120,"max":[1,1,1],"min":[-1,-1,-1],"type":"VEC3"},{"bufferView":54,"componentType":5126,"count":120,"max":[0.6078125238418579,0.581250011920929],"min":[0.3133343756198883,0.003125011920928955],"type":"VEC2"},{"bufferView":55,"componentType":5123,"count":144,"max":[119],"min":[0],"type":"SCALAR"},{"bufferView":56,"componentType":5126,"count":24,"max":[0.0031250000465661287,0.0062500000931322575,0.03750000149011612],"min":[-0.0031250000465661287,-0.012500000186264515,-0.01875000074505806],"type":"VEC3"},{"bufferView":57,"componentType":5126,"count":24,"max":[1,1,1],"min":[-1,-1,-1],"type":"VEC3"},{"bufferView":58,"componentType":5126,"count":24,"max":[0.62890625,0.6953125],"min":[0.1875,0.125],"type":"VEC2"},{"bufferView":59,"componentType":5123,"count":36,"max":[23],"min":[0],"type":"SCALAR"}],"materials":[{"pbrMetallicRoughness":{"metallicFactor":0,"roughnessFactor":1,"baseColorTexture":{"index":0}},"alphaMode":"MASK","alphaCutoff":0.05,"doubleSided":true}],"textures":[{"sampler":0,"source":0,"name":"geartexture.png"}],"samplers":[{"magFilter":9728,"minFilter":9728,"wrapS":33071,"wrapT":33071}],"images":[{"mimeType":"image/png","uri":"data:image/png;base64,"}],"meshes":[{"primitives":[{"mode":4,"attributes":{"POSITION":0,"NORMAL":1,"TEXCOORD_0":2},"indices":3,"material":0}]},{"primitives":[{"mode":4,"attributes":{"POSITION":4,"NORMAL":5,"TEXCOORD_0":6},"indices":7,"material":0}]},{"primitives":[{"mode":4,"attributes":{"POSITION":8,"NORMAL":9,"TEXCOORD_0":10},"indices":11,"material":0}]},{"primitives":[{"mode":4,"attributes":{"POSITION":12,"NORMAL":13,"TEXCOORD_0":14},"indices":15,"material":0}]},{"primitives":[{"mode":4,"attributes":{"POSITION":16,"NORMAL":17,"TEXCOORD_0":18},"indices":19,"material":0}]},{"primitives":[{"mode":4,"attributes":{"POSITION":20,"NORMAL":21,"TEXCOORD_0":22},"indices":23,"material":0}]},{"primitives":[{"mode":4,"attributes":{"POSITION":24,"NORMAL":25,"TEXCOORD_0":26},"indices":27,"material":0}]},{"primitives":[{"mode":4,"attributes":{"POSITION":28,"NORMAL":29,"TEXCOORD_0":30},"indices":31,"material":0}]},{"primitives":[{"mode":4,"attributes":{"POSITION":32,"NORMAL":33,"TEXCOORD_0":34},"indices":35,"material":0}]},{"primitives":[{"mode":4,"attributes":{"POSITION":36,"NORMAL":37,"TEXCOORD_0":38},"indices":39,"material":0}]},{"primitives":[{"mode":4,"attributes":{"POSITION":40,"NORMAL":41,"TEXCOORD_0":42},"indices":43,"material":0}]},{"primitives":[{"mode":4,"attributes":{"POSITION":44,"NORMAL":45,"TEXCOORD_0":46},"indices":47,"material":0}]},{"primitives":[{"mode":4,"attributes":{"POSITION":48,"NORMAL":49,"TEXCOORD_0":50},"indices":51,"material":0}]},{"primitives":[{"mode":4,"attributes":{"POSITION":52,"NORMAL":53,"TEXCOORD_0":54},"indices":55,"material":0}]},{"primitives":[{"mode":4,"attributes":{"POSITION":56,"NORMAL":57,"TEXCOORD_0":58},"indices":59,"material":0}]}]}